<svg width="20" height="21" viewBox="0 0 20 21" fill="none" xmlns="http://www.w3.org/2000/svg">
<path d="M19.39 9.60002C19.6647 9.31922 19.856 8.96762 19.9425 8.58445C20.029 8.20128 20.0074 7.80161 19.88 7.43002C19.7605 7.05733 19.5387 6.72569 19.2399 6.47288C18.9411 6.22006 18.5773 6.05622 18.19 6.00002L13.9 5.34002C13.88 5.33422 13.8615 5.32403 13.846 5.31019C13.8304 5.29635 13.8181 5.27921 13.81 5.26002L11.93 1.26002C11.7651 0.885457 11.4949 0.56692 11.1522 0.343206C10.8096 0.119491 10.4092 0.000254073 10 1.79599e-05C9.5955 -0.00165464 9.19912 0.113532 8.85852 0.331732C8.51791 0.549932 8.24757 0.861859 8.08 1.23002L6.2 5.23002C6.18974 5.24952 6.17556 5.26669 6.15835 5.28046C6.14114 5.29423 6.12128 5.30429 6.1 5.31002L1.82 6.00002C1.43209 6.05781 1.06782 6.22206 0.767698 6.47452C0.467574 6.72698 0.243362 7.05774 0.119997 7.43002C-0.00270478 7.8029 -0.0209761 8.20226 0.0671646 8.58479C0.155305 8.96733 0.346494 9.31843 0.619997 9.60002L3.78 12.85C3.7891 12.8705 3.7938 12.8926 3.7938 12.915C3.7938 12.9374 3.7891 12.9596 3.78 12.98L3.04 17.52C2.9712 17.9154 3.01605 18.3222 3.16932 18.6931C3.3226 19.064 3.578 19.3838 3.90583 19.6152C4.23367 19.8467 4.62048 19.9804 5.02128 20.0007C5.42209 20.021 5.82043 19.9272 6.17 19.73L9.9 17.66C9.91853 17.6504 9.93911 17.6453 9.96 17.6453C9.98089 17.6453 10.0015 17.6504 10.02 17.66L13.75 19.73C14.1 19.9229 14.4973 20.0134 14.8963 19.9913C15.2954 19.9691 15.6801 19.835 16.0066 19.6045C16.3331 19.374 16.5881 19.0563 16.7426 18.6877C16.897 18.319 16.9446 17.9144 16.88 17.52L16.19 13C16.1795 12.9818 16.1739 12.9611 16.1739 12.94C16.1739 12.919 16.1795 12.8983 16.19 12.88L19.39 9.60002Z" fill="#FF754C"/>
</svg>
